<svg width="30" height="23" viewBox="0 0 30 23" fill="none" xmlns="http://www.w3.org/2000/svg">
<path d="M29.9375 8.34375C29.9375 10.5521 29.1771 12.8958 27.6563 15.375C26.1146 17.875 23.3438 20.1562 19.3438 22.2187L18.5938 20.8125C20.5938 19.3958 22.0729 18.2083 23.0313 17.25C24.7188 15.5208 25.5625 13.8646 25.5625 12.2812C25.5625 11.7396 25.4063 11.3854 25.0938 11.2187C24.7813 11.0312 24.5104 10.9375 24.2813 10.9375C23.4896 11.0417 22.9688 11.0937 22.7188 11.0937C21.3854 11.0937 20.2917 10.6042 19.4375 9.625C18.5833 8.66667 18.1563 7.5 18.1563 6.125C18.1563 4.58333 18.625 3.29167 19.5625 2.25C20.5 1.22917 21.7917 0.718749 23.4375 0.718749C25.375 0.718749 26.9479 1.40625 28.1563 2.78125C29.3438 4.17708 29.9375 6.03125 29.9375 8.34375ZM12.6875 8.34375C12.6875 10.6771 11.875 13.0833 10.25 15.5625C8.625 18.0417 5.90625 20.2604 2.09375 22.2187L1.34375 20.8125C3.21875 19.5 4.65625 18.3437 5.65625 17.3437C7.42708 15.5729 8.3125 13.9271 8.3125 12.4062C8.3125 11.9687 8.19792 11.6146 7.96875 11.3437C7.73959 11.0729 7.42709 10.9375 7.03125 10.9375C6.23959 11.0417 5.71875 11.0937 5.46875 11.0937C4.15625 11.0937 3.07292 10.6146 2.21875 9.65625C1.34375 8.69791 0.906252 7.52083 0.906252 6.125C0.906252 4.5 1.38542 3.1875 2.34375 2.1875C3.30209 1.20833 4.60417 0.718748 6.25 0.718748C8.125 0.718748 9.66667 1.40625 10.875 2.78125C12.0833 4.17708 12.6875 6.03125 12.6875 8.34375Z" fill="#C0AC9D"/>
</svg>
