<svg width="30" height="23" viewBox="0 0 30 23" fill="none" xmlns="http://www.w3.org/2000/svg">
<path d="M0.0625 14.6562C0.0625 12.4479 0.822917 10.1042 2.34375 7.625C3.88542 5.125 6.65625 2.84375 10.6562 0.78125L11.4062 2.1875C9.40625 3.60417 7.92708 4.79167 6.96875 5.75C5.28125 7.47917 4.4375 9.13542 4.4375 10.7188C4.4375 11.2604 4.59375 11.6146 4.90625 11.7812C5.21875 11.9688 5.48958 12.0625 5.71875 12.0625C6.51042 11.9583 7.03125 11.9062 7.28125 11.9062C8.61458 11.9062 9.70833 12.3958 10.5625 13.375C11.4167 14.3333 11.8438 15.5 11.8438 16.875C11.8438 18.4167 11.375 19.7083 10.4375 20.75C9.5 21.7708 8.20833 22.2812 6.5625 22.2812C4.625 22.2812 3.05208 21.5938 1.84375 20.2188C0.65625 18.8229 0.0625 16.9688 0.0625 14.6562ZM17.3125 14.6562C17.3125 12.3229 18.125 9.91667 19.75 7.4375C21.375 4.95833 24.0938 2.73958 27.9062 0.78125L28.6562 2.1875C26.7812 3.5 25.3438 4.65625 24.3438 5.65625C22.5729 7.42708 21.6875 9.07292 21.6875 10.5938C21.6875 11.0312 21.8021 11.3854 22.0312 11.6562C22.2604 11.9271 22.5729 12.0625 22.9688 12.0625C23.7604 11.9583 24.2812 11.9062 24.5312 11.9062C25.8438 11.9062 26.9271 12.3854 27.7812 13.3438C28.6562 14.3021 29.0938 15.4792 29.0938 16.875C29.0938 18.5 28.6146 19.8125 27.6562 20.8125C26.6979 21.7917 25.3958 22.2812 23.75 22.2812C21.875 22.2812 20.3333 21.5938 19.125 20.2188C17.9167 18.8229 17.3125 16.9688 17.3125 14.6562Z" fill="#C0AC9D"/>
</svg>
